# xmcd
#
# Track frame offsets: 
#        150
#        10252
#        24174
#        36579
#        47186
#        59313
#        71708
#        83552
#        94790
#        108615
#        120638
#        131475
#        143730
#        156136
#        169671
#        180055
#        194171
#        205884
#        218483
#        227754
#        240026
#        251367
#        262063
#        272071
#        283491
#        294375
#        305018
#        315395
#        327900
#        340274
#
# Disc length: 4699 seconds
#
# Revision: 0
# Processed by: cddbd v1.5.2PL0 Copyright (c) Steve Scherf et al.
# Submitted via: ExactAudioCopy v1.0b1
#
DISCID=b212591e
DTITLE=Various Artist - New York Blues 1945-1956 - Rub A Little Boogie - Disc
DTITLE=C
DYEAR=2008
DGENRE=Blues
TTITLE0=Bob Gaddy and His Alley Cats - I Believe You Got A Sidekick
TTITLE1=Bob Gaddy and His Alley Cats - Bicycle Boogie
TTITLE2=Bob Gaddy and His Keys - No Help Wanted
TTITLE3=Bob Gaddy and His Keys - Little Girl's Boogie
TTITLE4=Bob Gaddy and His Keys - Blues Has Walked In My Room
TTITLE5=Bob Gaddy and His Keys - Slow Down Baby
TTITLE6=Bob Gaddy - Operator
TTITLE7=Bob Gaddy - I Love My Baby
TTITLE8=Bobby Harris - Baby You Say You Love Me
TTITLE9=Bobby Harris - Up And Down The Hill
TTITLE10=Bobby Harris - Drinkin' Little Woman
TTITLE11=Bobby Harris - Love, Love, Love
TTITLE12=Bobby Harris - Friendly Advice
TTITLE13=Bobby Harris - Doggin' Blues
TTITLE14=Duke Bayou (Alec Seward) and His Mystic Six - Rub A Little Boog
TTITLE14=ie
TTITLE15=Duke Bayou (Alec Seward) and His Mystic Six - That's All Right 
TTITLE15=With Me
TTITLE16=Duke Bayou (Alec Seward) and His Mystic Six - She Can Shake It
TTITLE17=Duke Bayou (Alec Seward) and His Mystic Six - Doomed
TTITLE18=Square Walton - Bad Hangover
TTITLE19=Square Walton - Gimme Your Bankroll
TTITLE20=Square Walton - Fish Tail Blues
TTITLE21=Square Walton - Pepper Head Woman
TTITLE22=Cousin Leroy - Goin' Back Home
TTITLE23=Cousin Leroy - Catfish
TTITLE24=Cousin Leroy - Will A Matchbox Hold My Clothes
TTITLE25=Cousin Leroy - I'm Lonesome
TTITLE26=Cousin Leroy - Highway 41
TTITLE27=Cousin Leroy - Waitin' At The Station
TTITLE28=Cousin Leroy - Crossroads
TTITLE29=Cousin Leroy - Up The River
EXTD=
EXTT0=
EXTT1=
EXTT2=
EXTT3=
EXTT4=
EXTT5=
EXTT6=
EXTT7=
EXTT8=
EXTT9=
EXTT10=
EXTT11=
EXTT12=
EXTT13=
EXTT14=
EXTT15=
EXTT16=
EXTT17=
EXTT18=
EXTT19=
EXTT20=
EXTT21=
EXTT22=
EXTT23=
EXTT24=
EXTT25=
EXTT26=
EXTT27=
EXTT28=
EXTT29=
PLAYORDER=
